<svg width="104" height="24" viewBox="0 0 104 24" fill="none" xmlns="http://www.w3.org/2000/svg">
<g clip-path="url(#clip0_613_3547)">
<path d="M16.2853 21.6261H19.0793V21H16.2853V19.4087H19.4462V18.7565H15.4668V23.9478H19.5591V23.2957H16.2853V21.6261Z" fill="#EF6F2E"/>
<path d="M23.256 18.7565H22.4375V23.9478H26.2758V23.2957H23.256V18.7565Z" fill="#EF6F2E"/>
<path d="M29.6047 21.6261H32.4269V21H29.6047V19.4087H32.7656V18.7565H28.8145V23.9478H32.8785V23.2957H29.6047V21.6261Z" fill="#EF6F2E"/>
<path d="M37.1691 19.6174C37.5078 19.4348 37.8747 19.3565 38.298 19.3565C38.9189 19.3565 39.4552 19.5652 39.8785 19.9826L40.3865 19.513C40.1325 19.2522 39.822 19.0435 39.4552 18.913C39.0883 18.7826 38.6931 18.7043 38.2416 18.7043C37.6771 18.7043 37.1691 18.8087 36.7176 19.0435C36.266 19.2783 35.8991 19.5913 35.6451 19.9826C35.3911 20.3739 35.25 20.8435 35.25 21.3391C35.25 21.8348 35.3911 22.3043 35.6451 22.6957C35.8991 23.087 36.266 23.4261 36.7176 23.6348C37.1691 23.8696 37.6771 23.9739 38.2416 23.9739C38.6931 23.9739 39.0883 23.8957 39.4552 23.7652C39.822 23.6348 40.1325 23.4261 40.3865 23.1652L39.8785 22.6957C39.4552 23.113 38.9189 23.3217 38.298 23.3217C37.8747 23.3217 37.5078 23.2435 37.1691 23.0609C36.8305 22.8783 36.5765 22.6435 36.3789 22.3565C36.1813 22.0435 36.0967 21.7043 36.0967 21.3391C36.0967 20.9739 36.1813 20.6348 36.3789 20.3217C36.5765 20.0348 36.8305 19.8 37.1691 19.6174Z" fill="#EF6F2E"/>
<path d="M42.2773 19.4087H44.1965V23.9478H44.9867V19.4087H46.9058V18.7565H42.2773V19.4087Z" fill="#EF6F2E"/>
<path d="M53.5938 21.6C53.8196 21.313 53.9043 20.9739 53.9043 20.5826C53.9043 20.0087 53.7067 19.5652 53.2834 19.2522C52.86 18.9391 52.2956 18.7826 51.5618 18.7826H49.3887V23.9739H50.1789V22.4087H51.5618C51.6465 22.4087 51.7594 22.4087 51.9005 22.3826L53.114 23.9739H53.9889L52.6625 22.2261C53.0858 22.0695 53.3963 21.8609 53.5938 21.6ZM51.5618 21.7304H50.2071V19.4087H51.5618C52.0698 19.4087 52.4649 19.513 52.7189 19.7217C52.9729 19.9304 53.114 20.2174 53.114 20.5826C53.114 20.9478 52.9729 21.2348 52.7189 21.4435C52.4367 21.6261 52.0698 21.7304 51.5618 21.7304Z" fill="#EF6F2E"/>
<path d="M60.8769 19.0435C60.4254 18.8087 59.9174 18.7043 59.3529 18.7043C58.7885 18.7043 58.2805 18.8087 57.8289 19.0435C57.3773 19.2783 57.0104 19.5913 56.7564 20.0087C56.5024 20.4 56.3613 20.8696 56.3613 21.3652C56.3613 21.8609 56.5024 22.3043 56.7564 22.7217C57.0104 23.1391 57.3773 23.4522 57.8289 23.6609C58.2805 23.8956 58.7885 24 59.3529 24C59.9174 24 60.4254 23.8956 60.8769 23.6609C61.3285 23.4261 61.6954 23.113 61.9494 22.7217C62.2034 22.3304 62.3445 21.8609 62.3445 21.3652C62.3445 20.8696 62.2034 20.4 61.9494 20.0087C61.6954 19.5913 61.3285 19.2783 60.8769 19.0435ZM61.2438 22.3565C61.0463 22.6696 60.7923 22.9043 60.4536 23.0609C60.1149 23.2435 59.748 23.3217 59.3529 23.3217C58.9578 23.3217 58.5627 23.2435 58.224 23.0609C57.8853 22.8783 57.6313 22.6435 57.4338 22.3565C57.2362 22.0435 57.1516 21.7043 57.1516 21.3391C57.1516 20.9739 57.2362 20.6348 57.4338 20.3217C57.6313 20.0087 57.8853 19.7739 58.224 19.6174C58.5627 19.4348 58.9296 19.3565 59.3529 19.3565C59.7763 19.3565 60.1431 19.4348 60.4536 19.6174C60.7923 19.8 61.0463 20.0348 61.2438 20.3217C61.4414 20.6348 61.5261 20.9739 61.5261 21.3391C61.5261 21.7043 61.4414 22.0696 61.2438 22.3565Z" fill="#EF6F2E"/>
<path d="M69.1736 22.6174L65.8151 18.7565H65.166V23.9478H65.9562V20.087L69.3147 23.9478H69.9638V18.7565H69.1736V22.6174Z" fill="#EF6F2E"/>
<path d="M74.0559 18.7565H73.2656V23.9478H74.0559V18.7565Z" fill="#EF6F2E"/>
<path d="M78.7687 19.6174C79.1074 19.4348 79.4743 19.3565 79.8976 19.3565C80.5185 19.3565 81.0548 19.5652 81.4781 19.9826L81.9861 19.513C81.7321 19.2522 81.4217 19.0435 81.0548 18.913C80.6879 18.7826 80.2928 18.7043 79.8412 18.7043C79.2767 18.7043 78.7687 18.8087 78.3172 19.0435C77.8656 19.2783 77.4987 19.5913 77.2447 19.9826C76.9907 20.3739 76.8496 20.8435 76.8496 21.3391C76.8496 21.8348 76.9907 22.3043 77.2447 22.6957C77.4987 23.087 77.8656 23.4261 78.3172 23.6348C78.7687 23.8696 79.2767 23.9739 79.8412 23.9739C80.2928 23.9739 80.6879 23.8957 81.0548 23.7652C81.4217 23.6348 81.7321 23.4261 81.9861 23.1652L81.4781 22.6957C81.0548 23.113 80.5185 23.3217 79.8976 23.3217C79.4743 23.3217 79.1074 23.2435 78.7687 23.0609C78.4301 22.8783 78.1761 22.6435 77.9785 22.3565C77.781 22.0696 77.6963 21.7043 77.6963 21.3391C77.6963 20.9739 77.781 20.6348 77.9785 20.3217C78.1761 20.0087 78.4301 19.8 78.7687 19.6174Z" fill="#EF6F2E"/>
<path d="M87.6037 21.3131C87.3497 21.2087 87.011 21.1304 86.5877 21.0261C86.249 20.9478 85.995 20.8957 85.8257 20.8174C85.6281 20.7652 85.487 20.6609 85.3459 20.5565C85.2048 20.4522 85.1483 20.2957 85.1483 20.1131C85.1483 19.8783 85.2612 19.6696 85.487 19.5131C85.7128 19.3565 86.0515 19.2783 86.503 19.2783C86.757 19.2783 87.011 19.3044 87.2932 19.3826C87.5472 19.4609 87.8013 19.5652 88.0553 19.6957L88.3093 19.0957C88.0835 18.9391 87.8013 18.8348 87.4908 18.7565C87.1804 18.6783 86.8417 18.6261 86.503 18.6261C86.0232 18.6261 85.6281 18.7044 85.3177 18.8348C85.0072 18.9652 84.7532 19.1478 84.6121 19.3565C84.4428 19.5913 84.3863 19.8261 84.3863 20.1131C84.3863 20.4522 84.471 20.7131 84.6686 20.8957C84.8661 21.0783 85.0637 21.2348 85.3459 21.3391C85.5999 21.4435 85.9386 21.5218 86.3619 21.6261C86.7006 21.7044 86.9546 21.7565 87.1521 21.8348C87.3497 21.887 87.4908 21.9913 87.6037 22.0957C87.7166 22.2 87.8013 22.3565 87.8013 22.5391C87.8013 22.7739 87.6884 22.9826 87.4626 23.1131C87.2368 23.2696 86.8981 23.3218 86.4184 23.3218C86.0797 23.3218 85.7128 23.2696 85.4023 23.1652C85.0637 23.0609 84.7814 22.9044 84.5839 22.7217L84.2734 23.2957C84.4992 23.4783 84.8097 23.6348 85.2048 23.7652C85.5999 23.8957 85.995 23.9478 86.4184 23.9478C86.8981 23.9478 87.2932 23.8957 87.6319 23.7391C87.9706 23.6087 88.1964 23.4261 88.3657 23.2174C88.535 22.9826 88.6197 22.7478 88.6197 22.4609C88.6197 22.1478 88.535 21.887 88.3375 21.6783C88.0553 21.5478 87.8577 21.4174 87.6037 21.3131Z" fill="#EF6F2E"/>
<path d="M17.6109 5.89565V3.54783C17.6109 1.5913 15.8893 0 13.7726 0H10.4423H0V2.68696H10.4423H13.2081C14.0548 2.68696 14.7322 3.31304 14.7322 4.09565V5.37391C14.7322 6.15652 14.0548 6.78261 13.2081 6.78261H10.4423H7.02741H3.83826C1.72157 6.78261 0 8.37391 0 10.3304V13.2783V13.9304H2.90692V13.2783V10.8783C2.90692 10.0957 3.58426 9.46957 4.43094 9.46957H7.02741H10.4423H13.7726C15.8893 9.44348 17.6109 7.85217 17.6109 5.89565Z" fill="#EF6F2E"/>
<path d="M38.4386 0H33.415H31.6652H24.666V2.68696H31.6934H33.4432H37.8742C38.7208 2.68696 39.3982 3.31304 39.3982 4.09565V5.37391C39.3982 6.15652 38.7208 6.78261 37.8742 6.78261H33.4432H32.1168H31.6934H28.5043C26.3876 6.78261 24.666 8.37391 24.666 10.3304V13.2783V13.9304H27.5729V13.2783V10.8783C27.5729 10.0957 28.2503 9.46957 29.097 9.46957H29.9154H30.367H31.6934H33.4432H34.9108C35.4188 9.46957 35.8704 9.73043 36.1244 10.1217L36.4913 10.6957L37.6766 12.6C38.0153 13.1478 38.4951 13.5391 39.0877 13.7478C39.4264 13.8783 39.7933 13.9304 40.1884 13.9304H40.9504H41.6278H42.3051V11.2435H41.0351C41.0069 11.2435 40.9504 11.2435 40.9222 11.2435C40.4988 11.2174 40.132 11.0087 39.878 10.6957C39.8497 10.6696 39.8215 10.6435 39.8215 10.5913L39.7368 10.4348L39.0877 9.3913C40.9222 9.13043 42.3333 7.64348 42.3333 5.89565V3.54783C42.2769 1.5913 40.5553 0 38.4386 0Z" fill="#EF6F2E"/>
<path d="M52.2116 0H49.3047V13.9043H52.2116V0Z" fill="#EF6F2E"/>
<path d="M77.6969 2.68696V3.65217V13.9043H79.6442H80.5756V0H79.616H76.7655C75.5238 0 74.4231 0.756522 74.0562 1.82609L73.8022 2.53043L73.012 4.69565V4.72174L71.7419 8.34783L70.9235 10.6435C70.9235 10.6696 70.8953 10.6957 70.8953 10.7217C70.7541 11.0348 70.4155 11.2435 70.0204 11.2435H69.9357H69.851C69.4559 11.2435 69.1455 11.0348 68.9761 10.7217C68.9761 10.6957 68.9479 10.6696 68.9479 10.6435L68.1294 8.34783L66.8312 4.74783V4.72174L66.041 2.55652L65.787 1.82609C65.4201 0.730435 64.3194 0 63.0776 0H60.1989H59.2676V13.9043H60.1989H62.1463V3.65217V2.68696H62.5414C62.9083 2.73913 63.0776 2.86957 63.2752 3.36522C63.3034 3.41739 63.3316 3.49565 63.3598 3.54783L64.1783 5.7913C64.1783 5.84348 64.2065 5.86957 64.2347 5.92174L66.4361 12.0522C66.4643 12.1043 66.4643 12.1304 66.4925 12.1826C66.8312 12.9913 67.5368 13.5652 68.4117 13.8C68.6657 13.8522 68.9197 13.9043 69.2019 13.9043H69.7664H69.9639H70.1615H70.7259C71.0082 13.9043 71.2621 13.8783 71.5162 13.8C72.3911 13.5652 73.0966 12.9913 73.4353 12.1826C73.4635 12.1304 73.4635 12.1043 73.4917 12.0522L75.6931 5.92174C75.7213 5.86957 75.7213 5.84348 75.7495 5.7913L76.568 3.54783C76.5962 3.46957 76.6244 3.41739 76.6527 3.36522C76.8502 2.86957 77.0196 2.71304 77.3864 2.68696H77.6969Z" fill="#EF6F2E"/>
<path d="M87.6309 11.2435V13.9043H104V11.2435H87.6309Z" fill="#EF6F2E"/>
<path d="M104 0H87.6309V2.68696H104V0Z" fill="#EF6F2E"/>
<path d="M102.419 8.29566V5.6087H87.6309V8.29566H102.419Z" fill="#EF6F2E"/>
<path d="M104.001 20.9739H91.498V21.7044H104.001V20.9739Z" fill="#EF6F2E"/>
<path d="M12.5026 20.9739H0V21.7044H12.5026V20.9739Z" fill="#EF6F2E"/>
</g>
<defs>
<clipPath id="clip0_613_3547">
<rect width="104" height="24" fill="#EF6F2E"/>
</clipPath>
</defs>
</svg>
